<svg version="1.1" id="Layer_1" xmlns="http://www.w3.org/2000/svg" xmlns:xlink="http://www.w3.org/1999/xlink" x="0px" y="0px"
	 width="100%" viewBox="0 0 246 326" enable-background="new 0 0 246 326" xml:space="preserve">
<path fill="#FFFFFF" opacity="1.000000" stroke="none" 
	d="
M1.000000,138.000000 
	C1.000000,92.410583 1.000000,46.821171 1.000000,1.000000 
	C41.353931,1.000000 81.708305,1.000000 122.394302,1.321944 
	C115.194595,5.894020 107.628899,10.084560 100.138687,14.405953 
	C81.069099,25.407949 62.016125,36.439030 42.994305,47.523338 
	C37.250721,50.870216 31.631012,54.429665 25.595398,57.951523 
	C21.475325,60.304375 17.714413,62.597446 13.595055,64.948174 
	C10.479887,66.630455 7.723164,68.255089 4.564238,69.944702 
	C3.443102,71.257370 2.240714,72.455231 2.105941,73.763107 
	C1.825883,76.480873 2.111837,79.256966 2.099443,82.462822 
	C2.077734,86.280251 2.121717,89.643944 2.099585,93.439682 
	C2.563520,96.630661 2.216062,100.202591 3.836354,101.951431 
	C6.074921,104.367607 9.796496,105.409798 13.035533,107.359055 
	C25.236258,114.812363 37.132233,122.226433 49.421093,128.919083 
	C53.334553,131.050385 52.860302,133.892853 53.096848,137.466187 
	C53.074116,142.954407 53.120525,147.980469 53.097427,153.469788 
	C53.074146,159.956955 53.120369,165.980896 53.096985,172.467590 
	C53.073875,178.288315 53.120369,183.646240 53.096222,189.465393 
	C53.072468,194.619186 53.119354,199.311752 53.095161,204.464020 
	C53.071720,209.283813 53.119362,213.643921 53.095665,218.465179 
	C53.071678,223.618607 53.119026,228.310898 53.095146,233.386444 
	C53.975597,234.840210 54.736599,236.234482 55.911297,236.926331 
	C61.603275,240.278717 67.431587,243.398407 73.165123,246.681686 
	C88.967560,255.730911 104.733223,264.844513 120.563263,273.844971 
	C121.719688,274.502502 123.636490,275.131805 124.585869,274.624756 
	C129.516617,271.991333 134.248062,268.984741 139.414124,266.058289 
	C144.893463,263.023804 150.007599,260.039185 155.481262,257.026184 
	C161.187759,253.789200 166.534744,250.580597 172.174500,247.219086 
	C177.664185,244.088074 182.861115,241.109970 188.417374,238.071808 
	C193.638672,235.112610 198.500641,232.213440 204.208267,228.810028 
	C191.888870,221.740112 180.700089,215.276520 169.442398,208.935272 
	C168.493103,208.400558 166.775711,208.171738 165.934250,208.672684 
	C159.865967,212.285324 153.931595,216.122925 147.592697,219.943390 
	C141.805771,223.293961 136.380936,226.590378 130.625214,230.039551 
	C126.455032,234.082932 122.765244,232.730667 118.658440,230.337860 
	C110.213081,225.417191 101.551048,220.868408 92.616714,215.967468 
	C91.781075,211.180145 91.306923,206.591888 90.907394,201.541107 
	C90.932358,195.720703 90.882683,190.362808 90.907883,184.541687 
	C90.932709,178.054199 90.882675,172.029938 90.906738,165.543610 
	C90.931641,160.055725 90.882454,155.029907 90.906693,149.542877 
	C90.930954,144.389771 90.881790,139.697876 90.905899,134.560791 
	C90.930946,131.412537 90.882721,128.709457 90.907700,125.550430 
	C90.931305,121.398666 90.881714,117.702866 90.994591,113.694801 
	C93.812103,111.602760 96.467148,109.822975 99.477264,108.016678 
	C102.572182,106.362114 105.312019,104.734070 108.412445,103.056061 
	C112.886314,100.683487 116.999611,98.360901 121.437820,95.889740 
	C123.506165,96.007317 125.423546,95.900436 126.957603,96.615700 
	C130.366989,98.205353 133.584412,100.206726 137.059937,102.344589 
	C156.257324,113.538506 175.274872,124.428101 194.831848,135.626572 
	C194.831848,130.314743 194.831848,126.161232 194.901962,121.543320 
	C194.980957,113.253777 194.912354,105.427376 195.041626,97.604240 
	C195.085571,94.945015 194.655167,93.261681 191.883163,91.838837 
	C185.063583,88.338387 178.560181,84.224045 171.912521,80.386200 
	C157.209030,71.897530 142.414139,63.562325 127.845200,54.849072 
	C124.429268,52.806107 121.793755,53.249371 118.795799,54.996002 
	C105.531471,62.723923 92.260910,70.441147 78.649048,78.213760 
	C74.521103,80.473946 70.736694,82.682594 66.633720,85.046165 
	C63.175705,87.115952 60.036266,89.030823 56.548496,90.961914 
	C54.124004,89.707481 52.047848,88.436821 49.678139,86.982826 
	C50.958698,85.216187 52.532810,83.632874 54.467445,82.020477 
	C58.923019,79.673691 63.018070,77.355995 67.430298,74.896065 
	C69.056129,74.093567 70.403267,73.499382 71.667610,72.763039 
	C87.595711,63.486557 103.545403,54.246143 119.400307,44.845951 
	C122.274635,43.141792 124.552361,42.964119 127.508751,44.749332 
	C134.920349,49.224815 142.585236,53.278126 150.075485,57.626606 
	C168.010696,68.038940 185.856995,78.605858 203.870407,88.880295 
	C206.255112,90.240471 207.041718,91.477394 207.020187,94.111549 
	C206.927780,105.418945 207.071640,116.728271 207.087250,128.279602 
	C207.045120,128.522324 207.150620,129.003799 207.082458,129.463730 
	C207.004608,132.918198 206.636688,135.971054 207.111420,138.886703 
	C207.426804,140.823563 208.474991,143.340164 210.002762,144.269318 
	C221.643600,151.348953 233.483368,158.101471 245.831970,165.287994 
	C245.831970,161.155441 245.831970,157.581680 245.902832,153.554291 
	C245.926636,149.737137 245.879593,146.373611 245.903839,142.545685 
	C245.983215,120.596733 245.872726,99.110893 246.105118,77.628769 
	C246.148682,73.602692 244.848389,71.473648 241.379593,69.614815 
	C233.897202,65.605186 226.654465,61.146244 219.335815,56.833572 
	C203.861877,47.715225 188.394562,38.585594 172.938705,29.436655 
	C156.950394,19.972540 140.978867,10.480066 125.000000,0.999999 
	C165.611343,1.000000 206.222702,1.000000 247.000000,1.000000 
	C247.000000,67.354134 247.000000,133.708405 246.665344,200.415710 
	C237.209946,195.657669 228.052933,190.610092 218.976288,185.421967 
	C201.816879,175.613831 184.683456,165.759781 167.577393,155.858902 
	C153.016022,147.430847 138.537918,138.858704 123.962982,130.454361 
	C117.640350,126.808556 111.167145,123.423897 104.015717,119.512245 
	C104.015717,133.274628 103.954559,146.196991 104.128578,159.116180 
	C104.142929,160.181686 105.551941,161.558975 106.654968,162.224579 
	C112.952873,166.024841 119.375175,169.618042 125.717117,173.346405 
	C148.802719,186.918243 171.873215,200.515762 195.129669,214.402435 
	C197.047318,215.529129 199.129456,215.996979 200.449188,217.260910 
	C203.075607,219.776245 208.338928,219.743958 208.101837,225.456360 
	C208.080307,228.605072 208.123154,231.307602 208.100922,234.372910 
	C206.656174,236.472260 205.276505,238.208847 203.539795,239.978180 
	C200.786438,241.396652 198.390137,242.782364 195.647583,244.209961 
	C192.532257,245.888016 189.763184,247.524185 186.643982,249.199081 
	C180.181564,252.787628 174.069244,256.337463 167.596848,259.945038 
	C165.033691,261.257111 162.806671,262.471466 160.632782,263.774414 
	C156.723694,266.117401 152.846451,268.513550 148.591537,270.944916 
	C142.150131,274.390472 136.073074,277.778595 129.646973,281.200012 
	C124.181259,286.335999 119.482033,284.300049 114.841171,280.440399 
	C114.396584,280.070648 113.650513,280.063416 112.887695,279.573975 
	C106.355171,275.540314 100.012627,271.761749 93.587860,268.128571 
	C90.851547,266.581207 87.943321,265.337830 84.969307,263.634583 
	C71.564438,255.503998 58.303497,247.695160 44.873688,239.564850 
	C40.972427,237.968552 39.381458,235.534897 39.928532,231.473251 
	C40.257256,229.032669 39.888233,226.498123 39.907265,223.543854 
	C39.932476,218.057556 39.883217,213.033234 39.907913,207.569244 
	C39.932270,204.755447 39.882664,202.381332 39.905159,199.574097 
	C39.929283,197.096497 39.881310,195.051987 39.905384,192.574341 
	C39.929646,190.096603 39.881866,188.052017 39.904728,185.582932 
	C39.928665,183.440720 39.881958,181.722992 39.904785,179.580902 
	C39.927883,177.439682 39.881443,175.722824 39.904129,173.572693 
	C39.926056,171.095306 39.878864,169.051208 39.900520,166.572845 
	C41.199955,160.933670 38.421078,158.223923 34.162273,155.966263 
	C27.000130,152.169495 20.071814,147.934387 12.968871,144.022125 
	C9.059575,141.868912 4.994720,139.998123 1.000000,138.000000 
z"/>
<path fill="#6DC06E" opacity="1.000000" stroke="none" 
	d="
M25.954559,57.891743 
	C31.631012,54.429665 37.250721,50.870216 42.994305,47.523338 
	C62.016125,36.439030 81.069099,25.407949 100.138687,14.405953 
	C107.628899,10.084560 115.194595,5.894020 122.862961,1.321944 
	C123.444443,1.000000 123.888893,1.000000 124.666672,0.999999 
	C140.978867,10.480066 156.950394,19.972540 172.938705,29.436655 
	C188.394562,38.585594 203.861877,47.715225 219.335815,56.833572 
	C226.654465,61.146244 233.897202,65.605186 241.379593,69.614815 
	C244.848389,71.473648 246.148682,73.602692 246.105118,77.628769 
	C245.872726,99.110893 245.983215,120.596733 245.525146,142.534332 
	C241.968399,141.955551 238.843582,140.974731 235.758255,139.882385 
	C226.503784,136.605896 217.264725,133.285889 208.015198,129.736984 
	C208.010727,129.491104 208.000732,128.999390 207.911987,128.792725 
	C207.657272,128.320480 207.425995,128.137436 207.129395,128.036896 
	C207.071640,116.728271 206.927780,105.418945 207.020187,94.111549 
	C207.041718,91.477394 206.255112,90.240471 203.870407,88.880295 
	C185.856995,78.605858 168.010696,68.038940 150.075485,57.626606 
	C142.585236,53.278126 134.920349,49.224815 127.508751,44.749332 
	C124.552361,42.964119 122.274635,43.141792 119.400307,44.845951 
	C103.545403,54.246143 87.595711,63.486557 71.667610,72.763039 
	C70.403267,73.499382 69.056129,74.093567 67.055389,74.851089 
	C54.332077,70.281746 42.283249,65.659416 30.290689,60.895435 
	C28.698786,60.263065 27.392904,58.910679 25.954559,57.891743 
z"/>
<path fill="#6DC06E" opacity="1.000000" stroke="none" 
	d="
M194.949402,214.103607 
	C171.873215,200.515762 148.802719,186.918243 125.717117,173.346405 
	C119.375175,169.618042 112.952873,166.024841 106.654968,162.224579 
	C105.551941,161.558975 104.142929,160.181686 104.128578,159.116180 
	C103.954559,146.196991 104.015717,133.274628 104.015717,119.512245 
	C111.167145,123.423897 117.640350,126.808556 123.962982,130.454361 
	C138.537918,138.858704 153.016022,147.430847 167.577393,155.858902 
	C184.683456,165.759781 201.816879,175.613831 218.976288,185.421967 
	C228.052933,190.610092 237.209946,195.657669 246.665344,200.884369 
	C247.000000,209.354233 247.000000,217.708466 246.593491,226.530502 
	C245.362595,226.924637 244.500626,226.982040 243.719406,226.757904 
	C228.943405,222.518860 214.186569,218.212372 199.392471,214.037857 
	C198.026413,213.652405 196.435760,214.062775 194.949402,214.103607 
z"/>
<path fill="#FFFFFF" opacity="1.000000" stroke="none" 
	d="
M247.000000,256.000000 
	C247.000000,279.613190 247.000000,303.226349 247.000000,327.000000 
	C206.312576,327.000000 165.624954,327.000000 124.579010,326.662415 
	C128.183502,323.898438 132.146286,321.472076 136.469177,319.021179 
	C139.596481,317.347321 142.363693,315.697998 145.446747,313.906677 
	C147.877411,312.526154 149.992203,311.287628 152.430405,309.910004 
	C155.874634,307.861145 158.995468,305.951355 162.478348,304.026886 
	C167.265152,301.354858 171.689911,298.697540 176.473724,296.018433 
	C182.238800,292.699982 187.644836,289.403259 193.296860,286.053406 
	C193.702835,285.949768 193.862839,285.899292 194.288666,285.876526 
	C194.746674,285.615936 194.938828,285.327637 195.488678,285.017090 
	C201.247818,281.698364 206.649277,278.401947 212.413513,275.057190 
	C218.888657,271.352356 225.001038,267.695892 231.473145,264.023987 
	C234.601807,262.354950 237.370697,260.701385 240.452850,258.900330 
	C242.844070,257.835236 244.922028,256.917633 247.000000,256.000000 
z"/>
<path fill="#FFFFFF" opacity="1.000000" stroke="none" 
	d="
M122.000000,327.000000 
	C81.759254,327.000000 41.518509,327.000000 1.000000,327.000000 
	C1.000000,303.979858 1.000000,280.958588 1.368159,257.483459 
	C5.444368,259.036835 9.152418,261.044006 13.015486,263.377075 
	C21.740780,268.483032 30.311060,273.263092 39.040257,278.362732 
	C46.808403,283.065948 54.417637,287.449615 62.349621,291.992493 
	C70.763466,296.805481 78.854561,301.459167 87.101181,306.429993 
	C98.837807,313.498047 110.418907,320.249023 122.000000,327.000000 
z"/>
<path fill="#366E45" opacity="1.000000" stroke="none" 
	d="
M12.860469,263.051208 
	C9.152418,261.044006 5.444368,259.036835 1.368159,257.014832 
	C1.000000,254.958328 1.000000,252.916672 1.388825,250.443695 
	C12.076455,253.023209 22.360062,256.087250 32.677082,259.034332 
	C57.627163,266.161377 82.582985,273.269135 107.574448,280.248749 
	C109.234680,280.712372 111.213669,280.034698 113.044395,279.887878 
	C113.650513,280.063416 114.396584,280.070648 114.841171,280.440399 
	C119.482033,284.300049 124.181259,286.335999 129.700195,281.553375 
	C131.402374,282.748016 132.589279,283.973145 134.022232,284.435059 
	C139.538162,286.213226 145.109955,287.831268 150.703537,289.352264 
	C159.155197,291.650452 167.642517,293.817474 176.114685,296.040222 
	C171.689911,298.697540 167.265152,301.354858 162.060287,304.014130 
	C160.140900,303.826050 158.969986,303.746368 157.866913,303.430115 
	C116.599480,291.597290 75.353531,279.689117 34.061504,267.942902 
	C27.094446,265.960968 19.932415,264.664429 12.860469,263.051208 
z"/>
<path fill="#397247" opacity="1.000000" stroke="none" 
	d="
M112.887695,279.573975 
	C111.213669,280.034698 109.234680,280.712372 107.574448,280.248749 
	C82.582985,273.269135 57.627163,266.161377 32.677082,259.034332 
	C22.360062,256.087250 12.076455,253.023209 1.388825,250.006195 
	C1.000000,247.299988 1.000000,244.599976 1.373414,241.490402 
	C3.609126,241.733276 5.446558,242.470520 7.337564,243.025055 
	C26.503119,248.645294 45.638557,254.374527 64.870590,259.758301 
	C71.491051,261.611633 78.358574,262.582367 85.113228,263.956299 
	C87.943321,265.337830 90.851547,266.581207 93.587860,268.128571 
	C100.012627,271.761749 106.355171,275.540314 112.887695,279.573975 
z"/>
<path fill="#3C7649" opacity="1.000000" stroke="none" 
	d="
M84.969307,263.634583 
	C78.358574,262.582367 71.491051,261.611633 64.870590,259.758301 
	C45.638557,254.374527 26.503119,248.645294 7.337564,243.025055 
	C5.446558,242.470520 3.609126,241.733276 1.373414,241.040421 
	C1.000000,237.307098 1.000000,233.614182 1.370561,229.500153 
	C14.819361,232.996826 27.883093,236.964996 41.000793,240.745911 
	C42.168449,241.082474 43.686981,240.201691 45.042557,239.886292 
	C58.303497,247.695160 71.564438,255.503998 84.969307,263.634583 
z"/>
<path fill="#468651" opacity="1.000000" stroke="none" 
	d="
M39.833958,208.008896 
	C39.883217,213.033234 39.932476,218.057556 39.487900,223.542084 
	C37.053638,223.733475 35.052998,223.680923 33.182735,223.160126 
	C22.438051,220.168182 11.724266,217.065277 1.000001,214.000000 
	C1.000000,208.977905 1.000000,203.955811 1.404698,198.467529 
	C3.874202,198.501312 5.949422,198.962097 8.002069,199.507812 
	C18.615877,202.329544 29.223911,205.173004 39.833958,208.008896 
z"/>
<path fill="#417E4D" opacity="1.000000" stroke="none" 
	d="
M1.000001,214.466110 
	C11.724266,217.065277 22.438051,220.168182 33.182735,223.160126 
	C35.052998,223.680923 37.053638,223.733475 39.413425,224.004044 
	C39.888233,226.498123 40.257256,229.032669 39.928532,231.473251 
	C39.381458,235.534897 40.972427,237.968552 44.873692,239.564835 
	C43.686981,240.201691 42.168449,241.082474 41.000793,240.745911 
	C27.883093,236.964996 14.819361,232.996826 1.370561,229.039505 
	C1.000000,224.310745 1.000000,219.621490 1.000001,214.466110 
z"/>
<path fill="#6CBF6D" opacity="1.000000" stroke="none" 
	d="
M1.000000,138.468277 
	C4.994720,139.998123 9.059575,141.868912 12.968871,144.022125 
	C20.071814,147.934387 27.000130,152.169495 34.162273,155.966263 
	C38.421078,158.223923 41.199955,160.933670 39.491493,166.570633 
	C37.560486,166.790421 36.066338,166.727737 34.660706,166.342270 
	C23.431009,163.262680 12.218072,160.121979 1.000000,157.000000 
	C1.000000,150.978851 1.000000,144.957703 1.000000,138.468277 
z"/>
<path fill="#66B669" opacity="1.000000" stroke="none" 
	d="
M195.129669,214.402435 
	C196.435760,214.062775 198.026413,213.652405 199.392471,214.037857 
	C214.186569,218.212372 228.943405,222.518860 243.719406,226.757904 
	C244.500626,226.982040 245.362595,226.924637 246.593491,226.999146 
	C247.000000,229.700012 247.000000,232.400024 246.605927,235.542938 
	C233.529984,232.327271 220.848083,228.668732 208.166199,225.010178 
	C208.338928,219.743958 203.075607,219.776245 200.449188,217.260910 
	C199.129456,215.996979 197.047318,215.529129 195.129669,214.402435 
z"/>
<path fill="#52985A" opacity="1.000000" stroke="none" 
	d="
M247.000000,255.625000 
	C244.922028,256.917633 242.844070,257.835236 240.064301,258.848022 
	C226.646744,255.259399 213.904846,251.661255 201.242844,247.801086 
	C199.304169,247.210068 197.734283,245.409332 195.993835,244.168076 
	C198.390137,242.782364 200.786438,241.396652 203.876984,240.127106 
	C206.240692,240.934021 207.862473,241.789352 209.587280,242.289185 
	C222.046494,245.899811 234.526550,249.438507 247.000000,253.000000 
	C247.000000,253.750000 247.000000,254.500000 247.000000,255.625000 
z"/>
<path fill="#5FAC64" opacity="1.000000" stroke="none" 
	d="
M208.101837,225.456360 
	C220.848083,228.668732 233.529984,232.327271 246.605927,235.992920 
	C247.000000,238.700012 247.000000,241.400024 246.615479,244.505493 
	C233.542633,241.277328 220.854309,237.643738 208.165985,234.010147 
	C208.123154,231.307602 208.080307,228.605072 208.101837,225.456360 
z"/>
<path fill="#2C5F3D" opacity="1.000000" stroke="none" 
	d="
M122.333336,327.000000 
	C110.418907,320.249023 98.837807,313.498047 87.316093,306.156921 
	C103.620010,310.059753 119.864532,314.552734 136.109070,319.045715 
	C132.146286,321.472076 128.183502,323.898438 124.110352,326.662415 
	C123.555557,327.000000 123.111107,327.000000 122.333336,327.000000 
z"/>
<path fill="#58A15E" opacity="1.000000" stroke="none" 
	d="
M208.100922,234.372910 
	C220.854309,237.643738 233.542633,241.277328 246.615479,244.955475 
	C247.000000,247.370560 247.000000,249.741104 247.000000,252.555832 
	C234.526550,249.438507 222.046494,245.899811 209.587280,242.289185 
	C207.862473,241.789352 206.240692,240.934021 204.234024,240.094330 
	C205.276505,238.208847 206.656174,236.472260 208.100922,234.372910 
z"/>
<path fill="#4D9056" opacity="1.000000" stroke="none" 
	d="
M39.907913,207.569244 
	C29.223911,205.173004 18.615877,202.329544 8.002069,199.507812 
	C5.949422,198.962097 3.874202,198.501312 1.404698,198.000671 
	C1.000000,195.629440 1.000000,193.258896 1.406518,190.444916 
	C5.778264,191.018951 9.749719,192.012848 13.707445,193.058701 
	C22.419664,195.360947 31.124947,197.689438 39.833061,200.007202 
	C39.882664,202.381332 39.932270,204.755447 39.907913,207.569244 
z"/>
<path fill="#52985A" opacity="1.000000" stroke="none" 
	d="
M39.905159,199.574097 
	C31.124947,197.689438 22.419664,195.360947 13.707445,193.058701 
	C9.749719,192.012848 5.778264,191.018951 1.406518,190.000732 
	C1.000000,187.629440 1.000000,185.258896 1.384553,182.488556 
	C14.457184,185.728348 27.145262,189.367920 39.833340,193.007492 
	C39.881310,195.051987 39.929283,197.096497 39.905159,199.574097 
z"/>
<path fill="#58A15E" opacity="1.000000" stroke="none" 
	d="
M39.905384,192.574341 
	C27.145262,189.367920 14.457184,185.728348 1.384553,182.044388 
	C1.000000,180.285645 1.000000,178.571289 1.410580,176.429245 
	C2.793541,176.133408 3.794937,176.158417 4.733888,176.413376 
	C16.439219,179.591995 28.135487,182.804001 39.834084,186.007416 
	C39.881866,188.052017 39.929646,190.096603 39.905384,192.574341 
z"/>
<path fill="#67B769" opacity="1.000000" stroke="none" 
	d="
M1.000000,157.428467 
	C12.218072,160.121979 23.431009,163.262680 34.660706,166.342270 
	C36.066338,166.727737 37.560486,166.790421 39.422646,167.004883 
	C39.878864,169.051208 39.926056,171.095306 39.521343,173.562134 
	C26.379625,170.323242 13.689813,166.661621 1.000000,163.000000 
	C1.000000,161.285645 1.000000,159.571289 1.000000,157.428467 
z"/>
<path fill="#5DA862" opacity="1.000000" stroke="none" 
	d="
M39.904724,185.582947 
	C28.135487,182.804001 16.439219,179.591995 4.733888,176.413376 
	C3.794937,176.158417 2.793541,176.133408 1.410580,176.000778 
	C1.000000,173.958328 1.000000,171.916672 1.379738,169.480087 
	C14.451401,172.725204 27.143326,176.365234 39.835251,180.005264 
	C39.881958,181.722992 39.928665,183.440720 39.904724,185.582947 
z"/>
<path fill="#62AF66" opacity="1.000000" stroke="none" 
	d="
M39.904785,179.580902 
	C27.143326,176.365234 14.451401,172.725204 1.379738,169.042587 
	C1.000000,167.285645 1.000000,165.571289 1.000000,163.428467 
	C13.689813,166.661621 26.379625,170.323242 39.452225,173.995422 
	C39.881443,175.722824 39.927883,177.439682 39.904785,179.580902 
z"/>
<path fill="#6CBF6E" opacity="1.000000" stroke="none" 
	d="
M78.992599,78.162239 
	C92.260910,70.441147 105.531471,62.723923 118.795799,54.996002 
	C121.793755,53.249371 124.429268,52.806107 127.845200,54.849072 
	C142.414139,63.562325 157.209030,71.897530 171.912521,80.386200 
	C178.560181,84.224045 185.063583,88.338387 191.883163,91.838837 
	C194.655167,93.261681 195.085571,94.945015 195.041626,97.604240 
	C194.912354,105.427376 194.980957,113.253777 194.511688,121.540024 
	C183.083237,118.022400 172.145355,113.957649 161.137054,110.093559 
	C153.099457,107.272232 144.969086,104.715149 136.880081,102.040268 
	C133.584412,100.206726 130.366989,98.205353 126.957603,96.615700 
	C125.423546,95.900436 123.506165,96.007317 121.062851,95.844734 
	C108.363800,91.288437 96.337532,86.696075 84.392227,81.901970 
	C82.411148,81.106895 80.783546,79.431061 78.992599,78.162239 
z"/>
<path fill="#346A43" opacity="1.000000" stroke="none" 
	d="
M53.167000,218.004028 
	C53.119362,213.643921 53.071720,209.283813 53.483124,204.463501 
	C54.761917,204.090637 55.648323,204.005066 56.391304,204.291519 
	C65.794647,207.916901 75.124855,211.741043 84.599838,215.165573 
	C87.176613,216.096893 90.173904,215.864746 92.978195,216.166565 
	C101.551048,220.868408 110.213081,225.417191 118.658440,230.337860 
	C122.765244,232.730667 126.455032,234.082932 130.775711,230.361206 
	C133.181473,231.732391 134.975006,233.269073 137.051880,234.081543 
	C148.623901,238.608673 160.264557,242.960327 171.881744,247.371979 
	C166.534744,250.580597 161.187759,253.789200 155.143463,256.879669 
	C152.919037,256.119507 151.407593,255.436707 149.862305,254.841797 
	C135.157669,249.180908 120.460678,243.499741 105.735062,237.893814 
	C88.225960,231.228210 70.690842,224.630936 53.167000,218.004028 
z"/>
<path fill="#306440" opacity="1.000000" stroke="none" 
	d="
M53.095665,218.465179 
	C70.690842,224.630936 88.225960,231.228210 105.735062,237.893814 
	C120.460678,243.499741 135.157669,249.180908 149.862305,254.841797 
	C151.407593,255.436707 152.919037,256.119507 154.783966,256.908051 
	C150.007599,260.039185 144.893463,263.023804 139.209274,265.760986 
	C138.069992,265.173584 137.536163,264.741577 136.926361,264.507050 
	C116.646896,256.707886 96.379173,248.877533 76.064697,241.170456 
	C68.489418,238.296494 60.802425,235.716965 53.166374,233.003174 
	C53.119026,228.310898 53.071678,223.618607 53.095665,218.465179 
z"/>
<path fill="#53995B" opacity="1.000000" stroke="none" 
	d="
M90.832115,114.007057 
	C90.881714,117.702866 90.931305,121.398666 90.547508,125.499794 
	C68.127426,117.468910 46.163414,108.972832 24.141163,100.630486 
	C16.893499,97.884972 9.495148,95.537247 2.165701,93.007629 
	C2.121717,89.643944 2.077734,86.280251 2.491889,82.460938 
	C5.174494,82.591232 7.473368,82.981239 9.611903,83.793427 
	C30.782888,91.833855 51.908291,99.994537 73.091644,108.002029 
	C78.927841,110.208176 84.914497,112.016296 90.832115,114.007057 
z"/>
<path fill="#5AA360" opacity="1.000000" stroke="none" 
	d="
M90.994591,113.694801 
	C84.914497,112.016296 78.927841,110.208176 73.091644,108.002029 
	C51.908291,99.994537 30.782888,91.833855 9.611903,83.793427 
	C7.473368,82.981239 5.174494,82.591232 2.557583,82.007195 
	C2.111837,79.256966 1.825883,76.480873 2.105941,73.763107 
	C2.240714,72.455231 3.443102,71.257370 4.619930,70.302742 
	C6.211064,71.469055 7.217866,72.667236 8.497196,73.165077 
	C20.608450,77.878052 32.745445,82.527748 44.936943,87.027954 
	C46.428905,87.578674 48.284573,87.144112 49.971687,87.166153 
	C52.047848,88.436821 54.124004,89.707481 56.869537,91.117050 
	C58.643471,91.970932 59.664238,92.902199 60.865501,93.367622 
	C73.601227,98.302063 86.365662,103.162422 99.122185,108.043182 
	C96.467148,109.822975 93.812103,111.602760 90.994591,113.694801 
z"/>
<path fill="#4D9056" opacity="1.000000" stroke="none" 
	d="
M2.099586,93.439674 
	C9.495148,95.537247 16.893499,97.884972 24.141163,100.630486 
	C46.163414,108.972832 68.127426,117.468910 90.474304,125.955750 
	C90.882721,128.709457 90.930946,131.412537 90.518188,134.558197 
	C89.237091,134.911789 88.350494,134.995239 87.606583,134.708511 
	C69.560516,127.752625 51.566479,120.659943 33.477055,113.819336 
	C26.723604,111.265488 19.753986,109.283287 12.882935,107.040436 
	C9.796496,105.409798 6.074921,104.367607 3.836354,101.951431 
	C2.216062,100.202591 2.563520,96.630661 2.099586,93.439674 
z"/>
<path fill="#2C5F3D" opacity="1.000000" stroke="none" 
	d="
M53.095146,233.386444 
	C60.802425,235.716965 68.489418,238.296494 76.064697,241.170456 
	C96.379173,248.877533 116.646896,256.707886 136.926361,264.507050 
	C137.536163,264.741577 138.069992,265.173584 138.844086,265.810822 
	C134.248062,268.984741 129.516617,271.991333 124.585869,274.624756 
	C123.636490,275.131805 121.719688,274.502502 120.563263,273.844971 
	C104.733223,264.844513 88.967560,255.730911 73.165123,246.681686 
	C67.431587,243.398407 61.603275,240.278717 55.911297,236.926331 
	C54.736599,236.234482 53.975597,234.840210 53.095146,233.386444 
z"/>
<path fill="#488852" opacity="1.000000" stroke="none" 
	d="
M13.035534,107.359055 
	C19.753986,109.283287 26.723604,111.265488 33.477055,113.819336 
	C51.566479,120.659943 69.560516,127.752625 87.606583,134.708511 
	C88.350494,134.995239 89.237091,134.911789 90.444923,135.003403 
	C90.881790,139.697876 90.930954,144.389771 90.527306,149.533386 
	C86.940918,148.941940 83.789146,147.950058 80.677200,146.845901 
	C71.498337,143.589096 62.335247,140.287872 53.165981,137.004028 
	C52.860302,133.892853 53.334553,131.050385 49.421093,128.919083 
	C37.132233,122.226433 25.236258,114.812363 13.035534,107.359055 
z"/>
<path fill="#3C7549" opacity="1.000000" stroke="none" 
	d="
M176.473724,296.018433 
	C167.642517,293.817474 159.155197,291.650452 150.703537,289.352264 
	C145.109955,287.831268 139.538162,286.213226 134.022232,284.435059 
	C132.589279,283.973145 131.402374,282.748016 130.049240,281.520081 
	C136.073074,277.778595 142.150131,274.390472 148.752441,271.272583 
	C150.522400,272.318970 151.671005,273.428619 153.026764,273.819122 
	C165.079498,277.290710 177.177414,280.605194 189.235443,284.058777 
	C190.591522,284.447144 191.783051,285.410034 193.050873,286.106537 
	C187.644836,289.403259 182.238800,292.699982 176.473724,296.018433 
z"/>
<path fill="#3C7649" opacity="1.000000" stroke="none" 
	d="
M147.954788,219.889236 
	C153.931595,216.122925 159.865967,212.285324 165.934250,208.672684 
	C166.775711,208.171738 168.493103,208.400558 169.442398,208.935272 
	C180.700089,215.276520 191.888870,221.740112 204.208267,228.810028 
	C198.500641,232.213440 193.638672,235.112610 188.258728,237.746857 
	C186.662674,236.755783 185.674896,235.793289 184.492065,235.341446 
	C176.190231,232.170212 167.781174,229.269669 159.547699,225.933853 
	C155.527039,224.304871 151.809525,221.927719 147.954788,219.889236 
z"/>
<path fill="#417E4D" opacity="1.000000" stroke="none" 
	d="
M193.296860,286.053406 
	C191.783051,285.410034 190.591522,284.447144 189.235443,284.058777 
	C177.177414,280.605194 165.079498,277.290710 153.026764,273.819122 
	C151.671005,273.428619 150.522400,272.318970 149.116821,271.215149 
	C152.846451,268.513550 156.723694,266.117401 160.632782,263.774414 
	C162.806671,262.471466 165.033691,261.257111 167.754333,260.275757 
	C169.295898,261.339417 170.205902,262.497894 171.363754,262.856842 
	C176.254654,264.373108 181.248810,265.554016 186.150604,267.037933 
	C194.804993,269.657776 203.419525,272.409210 212.050751,275.105530 
	C206.649277,278.401947 201.247818,281.698364 195.261230,285.087250 
	C194.375183,285.321503 194.157425,285.544556 194.022827,285.848816 
	C193.862839,285.899292 193.702835,285.949768 193.296860,286.053406 
z"/>
<path fill="#468651" opacity="1.000000" stroke="none" 
	d="
M212.413513,275.057190 
	C203.419525,272.409210 194.804993,269.657776 186.150604,267.037933 
	C181.248810,265.554016 176.254654,264.373108 171.363754,262.856842 
	C170.205902,262.497894 169.295898,261.339417 168.114410,260.218018 
	C174.069244,256.337463 180.181564,252.787628 186.696335,249.550552 
	C189.608475,251.162064 191.989197,252.895020 194.649933,253.685120 
	C206.761353,257.281586 218.951538,260.612823 231.113403,264.039429 
	C225.001038,267.695892 218.888657,271.352356 212.413513,275.057190 
z"/>
<path fill="#387046" opacity="1.000000" stroke="none" 
	d="
M147.592697,219.943390 
	C151.809525,221.927719 155.527039,224.304871 159.547699,225.933853 
	C167.781174,229.269669 176.190231,232.170212 184.492065,235.341446 
	C185.674896,235.793289 186.662674,236.755783 187.899384,237.806885 
	C182.861115,241.109970 177.664185,244.088074 172.174500,247.219086 
	C160.264557,242.960327 148.623901,238.608673 137.051880,234.081543 
	C134.975006,233.269073 133.181473,231.732391 131.106613,230.208435 
	C136.380936,226.590378 141.805771,223.293961 147.592697,219.943390 
z"/>
<path fill="#3F7B4C" opacity="1.000000" stroke="none" 
	d="
M53.166595,172.004822 
	C53.120369,165.980896 53.074146,159.956955 53.460228,153.517273 
	C58.536186,154.864670 63.139622,156.744308 67.832619,158.364532 
	C75.468491,161.000809 83.162918,163.467468 90.832642,166.005692 
	C90.882675,172.029938 90.932709,178.054199 90.517059,184.539246 
	C87.679695,184.324081 85.258194,183.785797 82.945007,182.948334 
	C73.001511,179.348450 63.089851,175.660614 53.166595,172.004822 
z"/>
<path fill="#3B7448" opacity="1.000000" stroke="none" 
	d="
M53.096985,172.467590 
	C63.089851,175.660614 73.001511,179.348450 82.945007,182.948334 
	C85.258194,183.785797 87.679695,184.324081 90.442184,185.002472 
	C90.882683,190.362808 90.932358,195.720703 90.514763,201.539001 
	C87.975426,201.475815 85.838882,201.128662 83.842140,200.398941 
	C73.597260,196.654831 63.388344,192.812317 53.166866,189.004181 
	C53.120369,183.646240 53.073875,178.288315 53.096985,172.467590 
z"/>
<path fill="#44824F" opacity="1.000000" stroke="none" 
	d="
M90.906738,165.543610 
	C83.162918,163.467468 75.468491,161.000809 67.832619,158.364532 
	C63.139622,156.744308 58.536186,154.864670 53.529732,153.054016 
	C53.120525,147.980469 53.074116,142.954407 53.096848,137.466187 
	C62.335247,140.287872 71.498337,143.589096 80.677200,146.845901 
	C83.789146,147.950058 86.940918,148.941940 90.453880,149.994629 
	C90.882454,155.029907 90.931641,160.055725 90.906738,165.543610 
z"/>
<path fill="#376F45" opacity="1.000000" stroke="none" 
	d="
M53.096222,189.465393 
	C63.388344,192.812317 73.597260,196.654831 83.842140,200.398941 
	C85.838882,201.128662 87.975426,201.475815 90.440125,202.001526 
	C91.306923,206.591888 91.781075,211.180145 92.616714,215.967468 
	C90.173904,215.864746 87.176613,216.096893 84.599838,215.165573 
	C75.124855,211.741043 65.794647,207.916901 56.391304,204.291519 
	C55.648323,204.005066 54.761917,204.090637 53.554207,204.003815 
	C53.119354,199.311752 53.072468,194.619186 53.096222,189.465393 
z"/>
<path fill="#65B468" opacity="1.000000" stroke="none" 
	d="
M25.595398,57.951523 
	C27.392904,58.910679 28.698786,60.263065 30.290689,60.895435 
	C42.283249,65.659416 54.332077,70.281746 66.738220,74.993332 
	C63.018070,77.355995 58.923019,79.673691 54.131996,81.874512 
	C41.877766,77.194199 30.300886,72.676788 18.781143,68.018097 
	C17.035772,67.312248 15.556080,65.949448 13.953501,64.890518 
	C17.714413,62.597446 21.475325,60.304375 25.595398,57.951523 
z"/>
<path fill="#65B468" opacity="1.000000" stroke="none" 
	d="
M78.649048,78.213760 
	C80.783546,79.431061 82.411148,81.106895 84.392227,81.901970 
	C96.337532,86.696075 108.363800,91.288437 120.737946,95.993309 
	C116.999611,98.360901 112.886314,100.683487 108.206314,102.759018 
	C95.452332,97.724854 83.244614,92.988411 71.103050,88.088043 
	C69.543442,87.458572 68.327461,85.977715 66.952293,84.891251 
	C70.736694,82.682594 74.521103,80.473946 78.649048,78.213760 
z"/>
<path fill="#65B468" opacity="1.000000" stroke="none" 
	d="
M208.019653,129.982864 
	C217.264725,133.285889 226.503784,136.605896 235.758255,139.882385 
	C238.843582,140.974731 241.968399,141.955551 245.453857,142.998734 
	C245.879593,146.373611 245.926636,149.737137 245.516449,153.551147 
	C235.925339,150.681122 226.777924,147.397247 217.661270,144.030121 
	C207.947632,140.442490 207.960342,140.408096 208.019653,129.982864 
z"/>
<path fill="#67B769" opacity="1.000000" stroke="none" 
	d="
M137.059937,102.344589 
	C144.969086,104.715149 153.099457,107.272232 161.137054,110.093559 
	C172.145355,113.957649 183.083237,118.022400 194.441574,122.004440 
	C194.831848,126.161232 194.831848,130.314743 194.831848,135.626572 
	C175.274872,124.428101 156.257324,113.538506 137.059937,102.344589 
z"/>
<path fill="#5FAC64" opacity="1.000000" stroke="none" 
	d="
M66.633720,85.046165 
	C68.327461,85.977715 69.543442,87.458572 71.103050,88.088043 
	C83.244614,92.988411 95.452332,97.724854 107.845734,102.808998 
	C105.312019,104.734070 102.572182,106.362114 99.477264,108.016670 
	C86.365662,103.162422 73.601227,98.302063 60.865501,93.367622 
	C59.664238,92.902199 58.643471,91.970932 57.217865,91.100815 
	C60.036266,89.030823 63.175705,87.115952 66.633720,85.046165 
z"/>
<path fill="#5FAC64" opacity="1.000000" stroke="none" 
	d="
M13.595055,64.948174 
	C15.556080,65.949448 17.035772,67.312248 18.781143,68.018097 
	C30.300886,72.676788 41.877766,77.194199 53.771469,81.903603 
	C52.532810,83.632874 50.958698,85.216187 49.678139,86.982834 
	C48.284573,87.144112 46.428905,87.578674 44.936943,87.027954 
	C32.745445,82.527748 20.608450,77.878052 8.497196,73.165077 
	C7.217866,72.667236 6.211064,71.469055 5.022134,70.237755 
	C7.723164,68.255089 10.479887,66.630455 13.595055,64.948174 
z"/>
<path fill="#4C8E55" opacity="1.000000" stroke="none" 
	d="
M231.473145,264.023987 
	C218.951538,260.612823 206.761353,257.281586 194.649933,253.685120 
	C191.989197,252.895020 189.608475,251.162064 187.046448,249.511826 
	C189.763184,247.524185 192.532257,245.888016 195.647583,244.209961 
	C197.734283,245.409332 199.304169,247.210068 201.242844,247.801086 
	C213.904846,251.661255 226.646744,255.259399 239.751053,258.995483 
	C237.370697,260.701385 234.601807,262.354950 231.473145,264.023987 
z"/>
<path fill="#5FAC64" opacity="1.000000" stroke="none" 
	d="
M208.015198,129.736984 
	C207.960342,140.408096 207.947632,140.442490 217.661270,144.030121 
	C226.777924,147.397247 235.925339,150.681122 245.445587,154.004776 
	C245.831970,157.581680 245.831970,161.155441 245.831970,165.287994 
	C233.483368,158.101471 221.643600,151.348953 210.002762,144.269318 
	C208.474991,143.340164 207.426804,140.823563 207.111420,138.886703 
	C206.636688,135.971054 207.004608,132.918198 207.294983,129.462265 
	C207.575668,129.000870 208.000732,128.999390 208.000732,128.999390 
	C208.000732,128.999390 208.010727,129.491104 208.015198,129.736984 
z"/>
<path fill="#62AF66" opacity="1.000000" stroke="none" 
	d="
M207.911987,128.792725 
	C208.000732,128.999390 207.575668,129.000870 207.363144,129.002335 
	C207.150620,129.003799 207.045120,128.522324 207.087250,128.279602 
	C207.425995,128.137436 207.657272,128.320480 207.911987,128.792725 
z"/>
<path fill="#346A43" opacity="1.000000" stroke="none" 
	d="
M13.015486,263.377075 
	C19.932415,264.664429 27.094446,265.960968 34.061504,267.942902 
	C75.353531,279.689117 116.599480,291.597290 157.866913,303.430115 
	C158.969986,303.746368 160.140900,303.826050 161.698242,304.028839 
	C158.995468,305.951355 155.874634,307.861145 152.081375,309.759735 
	C150.956726,309.540466 150.522522,309.270264 150.049728,309.133209 
	C118.929916,300.113770 87.821724,291.053558 56.671181,282.141418 
	C50.828629,280.469849 44.815666,279.393951 38.881340,278.043182 
	C30.311060,273.263092 21.740780,268.483032 13.015486,263.377075 
z"/>
<path fill="#316641" opacity="1.000000" stroke="none" 
	d="
M39.040257,278.362732 
	C44.815666,279.393951 50.828629,280.469849 56.671181,282.141418 
	C87.821724,291.053558 118.929916,300.113770 150.049728,309.133209 
	C150.522522,309.270264 150.956726,309.540466 151.757980,309.898804 
	C149.992203,311.287628 147.877411,312.526154 145.052094,313.853516 
	C142.587311,313.472168 140.825623,313.027924 139.079849,312.528076 
	C115.091316,305.659698 91.111778,298.759521 67.102554,291.964294 
	C65.524689,291.517700 63.723942,291.858643 62.026867,291.833252 
	C54.417637,287.449615 46.808403,283.065948 39.040257,278.362732 
z"/>
<path fill="#2F6340" opacity="1.000000" stroke="none" 
	d="
M62.349621,291.992523 
	C63.723942,291.858643 65.524689,291.517700 67.102554,291.964294 
	C91.111778,298.759521 115.091316,305.659698 139.079849,312.528076 
	C140.825623,313.027924 142.587311,313.472168 144.736252,313.995483 
	C142.363693,315.697998 139.596481,317.347321 136.469177,319.021179 
	C119.864532,314.552734 103.620010,310.059753 87.160568,305.839844 
	C78.854561,301.459167 70.763466,296.805481 62.349621,291.992523 
z"/>
<path fill="#3C7549" opacity="1.000000" stroke="none" 
	d="
M194.288666,285.876526 
	C194.157425,285.544556 194.375183,285.321503 194.903534,285.109497 
	C194.938828,285.327637 194.746674,285.615936 194.288666,285.876526 
z"/>
</svg>